<svg id="Capa_1" enable-background="new 0 0 450.823 450.823" height="512" viewBox="0 0 450.823 450.823" width="512" xmlns="http://www.w3.org/2000/svg"><path d="m426.004 157.653c-9.443-8.035-20.814-12.927-32.794-15.154-6.21-48.442-47.255-86.146-97.357-86.146h-140.883c-50.107 0-91.154 37.712-97.359 86.161-11.968 2.227-23.347 7.111-32.792 15.139-15.766 13.414-24.819 32.978-24.819 53.67 0 17.858 6.783 34.89 19.096 47.947 5.861 6.219 9.08 15.684 9.08 26.663v66.272c0 7.787 6.301 14.088 14.088 14.088h42.265v28.176h28.176v-28.176h225.412v28.176h28.176v-28.176h42.265c7.787 0 14.088-6.301 14.088-14.088v-66.272c0-10.979 3.219-20.444 9.08-26.663 12.313-13.056 19.096-30.089 19.096-47.947.001-20.692-9.051-40.256-24.818-53.67zm-271.033-73.124h140.882c34.665 0 63.397 25.224 69.208 58.251-31.616 7.061-55.12 37-55.12 71.556v39.252h-169.059v-39.252c0-34.55-23.499-64.484-55.12-71.552 5.81-33.026 34.542-58.255 69.209-58.255zm256.257 155.425c-10.8 11.46-16.757 27.791-16.757 45.979v52.184h-338.118v-52.184c0-18.188-5.957-34.519-16.757-45.979-7.361-7.815-11.419-17.982-11.419-28.63 0-12.41 5.434-24.159 14.9-32.208 9.617-8.172 21.944-11.474 34.56-9.466 19.99 3.247 35.069 22.467 35.069 44.686v39.252 28.176h225.412v-28.176-39.252c0-22.219 15.079-41.439 35.055-44.686 12.712-2.091 24.943 1.266 34.574 9.466 9.466 8.048 14.9 19.798 14.9 32.208 0 10.648-4.059 20.815-11.419 28.63z"/><path id="path-1_71_" d="m390.346 201.361c5.502 5.502 5.502 14.422 0 19.924s-14.422 5.502-19.924 0-5.502-14.422 0-19.924c5.502-5.501 14.422-5.501 19.924 0" transform="translate(12.951 6.951)"/><path id="path-1_70_" d="m80.404 201.361c5.502 5.502 5.502 14.422 0 19.924s-14.422 5.502-19.924 0-5.502-14.422 0-19.924c5.502-5.501 14.422-5.501 19.924 0" transform="translate(1.951 6.951)"/></svg>