<svg id="icons" enable-background="new 0 0 64 64" height="512" viewBox="0 0 64 64" width="512" xmlns="http://www.w3.org/2000/svg"><g><path d="m46.99 44.49h-6.99v.01h-16v-.01h-6.99l-.01.01c-2.21 0-4 1.789-4 4v14h38v-14c0-2.211-1.79-4.01-4.01-4.01z" fill="#656d78"/><g><path d="m32 23.496c-.553 0-1-.447-1-1v-17.992c0-.553.447-1 1-1s1 .447 1 1v17.992c0 .553-.447 1-1 1z" fill="#656d78"/></g><g><path d="m54 17.5c.55 0 1 .449 1 1v16.01c0 .549-.45 1-1 1h-5c-.55 0-1-.451-1-1v-16.01c0-.551.45-1 1-1h2 1z" fill="#ed5565"/></g><g><path d="m38 20.498v4h-12v-4h6z" fill="#ccd1d9"/></g><g><path d="m41 1.5v3h-3-6-6-3v-3z" fill="#e6e9ed"/></g><g><path d="m14 7.5v10h-3v-12.002z" fill="#aab2bd"/></g><g><path d="m15 17.5c.55 0 1 .449 1 1v16.01c0 .549-.45 1-1 1h-5c-.55 0-1-.451-1-1v-16.01c0-.551.45-1 1-1h2 1z" fill="#ed5565"/></g><g><path d="m26 25.498h12v4h-12z" fill="#ccd1d9"/></g><g><path d="m53 5.498v12.002h-3v-10z" fill="#aab2bd"/></g><g><path d="m26 30.5h12v3.99h-12z" fill="#ccd1d9"/></g><g><g><path d="m11 5.5c0-.551.45-1 1-1h11.001 2 1c.55 0 1 .449 1 1v1c0 .549-.45 1-1 1h-11.001c-.55 0-1.45 0-2 0h-1c-.55 0-1-.451-1-1z" fill="#ccd1d9"/></g><g><path d="m52 4.5c.55 0 1 .449 1 1v1c0 .549-.45 1-1 1h-1c-.55 0-1.45 0-2 0h-11.001c-.55 0-1-.451-1-1v-1c0-.551.45-1 1-1h1 2z" fill="#ccd1d9"/></g></g><path d="m39 34.49c-.55 0-1.45 0-2 0h-10c-.55 0-1.45 0-2 0-.55 0-1 .449-1 1v8 4.002 3.01c0 .549.45 1 1 1h14c.55 0 1-.451 1-1v-3.01c0-.551 0-3.453 0-4.002v-8c0-.551-.45-1-1-1z" fill="#da4453"/><g><path d="m40.009 2.5h-16.009c-.553 0-1-.447-1-1s.447-1 1-1h16.009c.553 0 1 .447 1 1s-.447 1-1 1z" fill="#e6e9ed"/></g><g><path d="m58 63.5h-52c-.553 0-1-.447-1-1s.447-1 1-1h52c.553 0 1 .447 1 1s-.447 1-1 1z" fill="#545c66"/></g><path d="m26 29.498h12v1.002h-12z" fill="#aab2bd"/><path d="m26 24.498h12v1.002h-12z" fill="#aab2bd"/><path d="m26 4.5h2v29.99h-2z" fill="#656d78"/><path d="m36 4.5h2v29.99h-2z" fill="#656d78"/><g><path d="m40 49.5c.55 0 1 .449 1 1v2c0 .549-.45 1-1 1h-16c-.55 0-1-.451-1-1v-2c0-.551.45-1 1-1z" fill="#ed5565"/></g></g></svg>